<?xml version="1.0" standalone="no"?>
<!DOCTYPE svg PUBLIC "-//W3C//DTD SVG 20010904//EN"
 "http://www.w3.org/TR/2001/REC-SVG-20010904/DTD/svg10.dtd">
<svg version="1.0" xmlns="http://www.w3.org/2000/svg"
 width="225.000000pt" height="225.000000pt" viewBox="0 0 225.000000 225.000000"
 preserveAspectRatio="xMidYMid meet">

<g transform="translate(0.000000,225.000000) scale(0.100000,-0.100000)"
fill="#000000" stroke="none">
<path d="M1000 2214 c-204 -35 -340 -86 -481 -181 -92 -63 -210 -171 -252
-232 -17 -25 -39 -54 -48 -65 -32 -33 -118 -220 -143 -307 -28 -99 -45 -209
-48 -312 -2 -62 -3 -57 -8 38 l-6 110 -2 -126 c-3 -204 39 -382 129 -547 162
-296 431 -492 770 -562 142 -30 347 -24 492 14 399 103 695 401 809 814 19 66
22 104 22 267 1 177 -1 197 -27 289 -51 185 -135 332 -266 469 -87 91 -201
179 -175 135 5 -9 2 -9 -9 1 -19 15 -23 26 -5 15 7 -5 8 -3 4 5 -5 7 -15 10
-23 7 -8 -3 -11 -2 -8 4 6 9 -28 32 -55 36 -8 2 -16 7 -18 13 -2 5 -10 7 -19
4 -11 -4 -14 -2 -9 5 4 7 4 12 -1 13 -41 3 -72 11 -126 33 -34 13 -96 32 -137
41 -72 15 -308 28 -360 19z m-130 -63 c0 -13 -24 -31 -42 -31 -18 0 -18 -1 -1
-27 l17 -26 6 23 c6 24 35 49 45 39 3 -3 -1 -21 -9 -40 -8 -19 -12 -46 -9 -60
6 -31 -24 -50 -34 -21 -3 9 -22 34 -41 55 -26 26 -31 37 -20 37 10 0 18 10 20
23 2 14 11 23 26 25 12 2 20 8 17 13 -3 5 1 6 9 3 9 -3 16 -9 16 -13z m200
-16 c0 -8 -7 -15 -15 -15 -11 0 -15 -12 -15 -45 0 -37 -3 -45 -19 -45 -10 0
-19 6 -18 13 2 55 -4 78 -19 75 -10 -2 -19 2 -21 9 -4 12 20 19 75 22 22 1 32
-3 32 -14z m60 -5 c0 -11 7 -20 15 -20 8 0 15 9 15 20 0 14 7 20 21 20 18 0
20 -5 18 -53 -1 -29 0 -58 4 -64 4 -6 -3 -8 -18 -5 -18 3 -25 11 -25 28 0 18
-6 24 -20 24 -12 0 -20 -6 -19 -12 3 -27 -2 -38 -16 -38 -12 0 -15 13 -15 60
0 53 2 60 20 60 13 0 20 -7 20 -20z m131 -32 c-1 -25 2 -49 8 -52 13 -8 31 25
31 58 0 19 5 26 20 26 14 0 20 -7 20 -24 0 -33 -20 -86 -33 -87 -70 -7 -82 -4
-84 21 -2 14 0 44 3 68 4 33 9 42 22 40 13 -2 16 -13 13 -50z m199 22 c8 -14
8 -20 0 -20 -7 0 -8 -22 -4 -65 6 -62 6 -65 -15 -65 -11 0 -21 6 -21 14 0 18
-26 27 -56 20 -34 -9 -31 13 7 56 17 19 35 45 40 58 11 27 35 29 49 2z m-707
-63 c-4 -28 -1 -36 21 -50 32 -22 33 -37 2 -37 -13 0 -29 -7 -36 -15 -21 -25
-35 -17 -58 30 -26 54 -27 61 -7 69 10 4 19 -2 24 -17 8 -21 9 -20 15 10 4 17
15 34 24 36 9 3 18 5 19 6 1 0 -1 -14 -4 -32z m948 6 c13 -16 12 -17 -3 -4
-10 7 -18 15 -18 17 0 8 8 3 21 -13z m-140 -13 c22 -12 37 -25 33 -31 -3 -6
-12 -8 -20 -5 -10 4 -20 -7 -31 -32 -10 -20 -18 -39 -19 -40 -2 -2 -11 -1 -22
2 -20 7 -20 7 2 47 20 38 20 40 3 50 -17 10 -15 29 4 29 5 0 28 -9 50 -20z
m-953 -95 c18 -25 32 -48 32 -50 0 -2 -9 -9 -21 -15 -16 -9 -26 -8 -45 5 -25
16 -33 8 -13 -12 13 -13 6 -43 -10 -43 -5 0 -23 21 -40 47 -26 42 -28 50 -16
62 12 13 18 13 42 1 47 -24 49 -24 29 -2 -17 20 -16 52 2 52 4 0 23 -20 40
-45z m792 11 c0 -7 -8 -16 -19 -19 -14 -3 -17 0 -14 14 6 22 33 26 33 5z m330
-18 c26 -28 26 -63 -1 -82 -12 -8 -18 -19 -15 -25 13 -20 -15 -21 -44 -1 -16
12 -33 19 -37 17 -15 -9 -13 66 2 90 20 30 67 31 95 1z m-1290 -38 c0 -5 -5
-10 -11 -10 -7 0 -18 -8 -25 -17 -12 -17 -13 -17 -14 3 0 11 3 24 7 27 10 11
43 8 43 -3z m35 -9 c3 -5 -5 -17 -17 -25 -12 -9 -19 -19 -15 -22 4 -4 15 1 26
10 26 23 39 2 15 -25 -9 -10 -12 -19 -6 -19 6 0 14 5 17 10 9 14 35 12 34 -2
0 -7 -14 -24 -31 -38 l-31 -24 -37 42 c-20 24 -39 39 -43 35 -4 -4 11 -25 33
-48 37 -37 39 -43 25 -55 -14 -11 -21 -8 -55 25 -22 22 -40 36 -40 32 0 -17 3
-22 12 -19 5 1 7 -2 3 -8 -4 -6 3 -26 14 -46 16 -27 18 -39 10 -52 -11 -17
-14 -17 -70 1 -61 21 -64 23 -50 45 7 11 15 11 45 -2 l38 -16 -21 35 -20 34
68 71 c67 68 84 80 96 61z m1332 -17 c3 -9 -5 -26 -21 -43 -50 -52 -23 -72 29
-21 28 28 33 29 45 15 11 -13 9 -20 -11 -41 -38 -41 -57 -48 -84 -30 -46 30
-48 50 -12 95 35 44 45 49 54 25z m-1274 -110 c-7 -18 -33 -18 -33 -1 0 19 10
27 25 20 8 -2 11 -11 8 -19z m1425 -18 c2 -16 -1 -26 -6 -22 -5 3 -23 -19 -38
-49 -30 -57 -47 -65 -52 -24 -5 31 -22 51 -38 45 -7 -3 -15 2 -18 11 -8 20
-11 18 54 36 42 13 58 13 70 4 8 -6 6 -1 -5 12 l-20 23 25 -3 c19 -3 26 -11
28 -33z m-293 -18 c3 -13 6 -283 8 -601 l2 -577 -256 0 c-281 0 -286 -1 -298
-60 l-7 -35 -263 -3 c-186 -2 -268 1 -277 9 -12 9 -14 112 -14 593 l0 581 219
-2 220 -2 11 34 c6 18 17 39 25 45 8 7 12 17 8 23 -3 6 -1 7 5 3 7 -4 20 -2
29 3 11 6 126 11 300 11 l283 0 5 -22z m325 -128 c-23 -32 -17 -38 14 -15 10
8 23 12 27 9 20 -12 6 -30 -39 -56 -37 -21 -51 -25 -60 -16 -17 17 -15 32 9
62 24 30 19 33 -17 9 -21 -14 -27 -14 -34 -3 -12 19 -5 27 48 54 45 23 47 23
60 5 11 -17 10 -23 -8 -49z m-1740 -4 c0 -7 -10 -20 -22 -29 -23 -15 -23 -15
-3 -31 28 -22 50 -16 50 14 0 32 29 34 33 3 5 -32 -41 -76 -71 -68 -38 12 -60
40 -53 68 11 44 66 80 66 43z m-4 -145 c9 -17 9 -32 3 -50 -12 -31 -26 -41
-58 -41 -50 0 -76 53 -50 101 16 30 89 23 105 -10z m1836 17 c30 -25 32 -88 2
-88 -9 0 -15 12 -15 33 -2 30 -2 30 -8 -8 -5 -31 -11 -41 -27 -43 -12 -2 -29
4 -38 13 -21 21 -22 85 -1 85 15 0 19 -10 16 -42 -1 -10 2 -18 8 -18 6 0 9 10
7 23 -7 46 23 71 56 45z m-1790 -69 c-9 -24 -26 -27 -30 -5 -2 8 5 16 15 19
10 3 19 5 20 6 1 0 -1 -8 -5 -20z m1836 -60 c2 -12 -9 -18 -40 -25 -28 -6 -44
-15 -46 -27 -2 -12 3 -17 18 -17 12 0 19 4 16 8 -8 13 57 0 71 -14 23 -23 14
-30 -44 -31 -66 -1 -93 15 -93 56 0 36 10 48 50 59 45 13 64 11 68 -9z m-1954
5 c36 -5 46 -11 46 -25 0 -14 -7 -19 -25 -19 -16 0 -25 -6 -25 -15 0 -8 9 -15
20 -15 13 0 20 -7 20 -20 0 -22 -6 -23 -74 -14 -36 5 -46 11 -46 25 0 14 7 19
25 19 30 0 34 25 5 33 -22 6 -28 37 -6 37 7 0 34 -3 60 -6z m1826 -69 c0 -8
-7 -15 -15 -15 -8 0 -15 7 -15 15 0 8 7 15 15 15 8 0 15 -7 15 -15z m133 -155
c19 -1 20 -2 7 -13 -9 -7 -14 -20 -12 -31 3 -13 0 -16 -10 -10 -7 5 -21 7 -30
6 -13 -2 -16 1 -12 12 3 9 1 16 -5 16 -6 0 -11 5 -11 10 0 6 6 10 14 10 8 0
17 8 21 18 8 16 8 16 12 0 3 -10 14 -18 26 -18z m-1983 10 c0 -5 7 -10 15 -10
8 0 15 -4 15 -10 0 -5 -5 -10 -11 -10 -6 0 -8 -7 -5 -16 4 -11 1 -14 -12 -12
-9 1 -23 -1 -31 -6 -10 -7 -12 -4 -6 13 4 12 2 21 -4 21 -6 0 -11 5 -11 10 0
6 7 10 15 10 8 0 15 5 15 10 0 6 5 10 10 10 6 0 10 -4 10 -10z m68 -181 c2
-18 -3 -29 -20 -37 l-23 -11 23 0 c18 -1 42 -32 42 -55 0 -2 -25 -8 -56 -15
-47 -11 -58 -11 -65 0 -10 17 -7 20 33 29 l33 8 -37 1 c-52 1 -56 30 -9 53
l36 16 -37 -5 c-30 -4 -38 -2 -38 10 0 10 15 19 43 25 59 14 72 11 75 -19z
m1817 -19 c10 -11 33 -25 50 -32 39 -13 36 -38 -4 -38 -14 -1 -39 -7 -56 -14
l-30 -12 47 -12 c51 -13 61 -21 49 -41 -7 -10 -13 -10 -29 -2 -33 17 -37 13
-9 -9 35 -28 25 -50 -22 -51 l-36 -1 33 -9 c17 -5 32 -16 32 -24 0 -19 -4 -19
-68 0 -29 9 -52 21 -52 28 1 27 20 42 52 39 l33 -3 -25 17 c-14 10 -27 19 -29
20 -2 2 2 24 9 49 9 33 18 45 31 45 23 0 25 18 4 26 -16 6 -21 44 -7 44 5 0
17 -9 27 -20z m90 -20 c3 -6 -1 -7 -9 -4 -18 7 -21 14 -7 14 6 0 13 -4 16 -10z
m-1875 -95 c0 -17 -27 -30 -84 -40 -31 -6 -36 -5 -36 12 0 15 10 23 43 30 62
15 77 15 77 -2z m14 -41 c3 -9 6 -17 6 -19 0 -1 -20 -8 -44 -15 -42 -11 -44
-14 -35 -37 12 -32 12 -33 -5 -33 -12 0 -42 62 -38 80 0 4 83 35 103 39 4 0
10 -6 13 -15z m30 -89 c4 -10 -10 -22 -46 -39 -29 -14 -55 -23 -60 -20 -19 12
-5 31 35 51 51 26 63 28 71 8z m1649 -41 c-8 -13 -11 -24 -7 -24 5 0 15 10 22
21 10 15 17 18 24 11 8 -8 8 -15 -1 -26 -7 -8 -9 -20 -5 -27 4 -8 12 -3 21 16
10 18 18 24 25 17 8 -8 -9 -59 -27 -80 -4 -5 -105 47 -105 54 0 4 10 24 22 45
16 29 25 36 34 28 11 -9 10 -15 -3 -35z m-1597 -34 c21 -32 25 -43 15 -53 -10
-9 -14 -8 -22 6 -10 17 -13 17 -45 -8 -33 -25 -54 -26 -54 -2 0 7 16 22 36 35
27 18 33 26 25 36 -11 13 -5 26 11 26 4 0 20 -18 34 -40z m1592 -46 c12 -8 22
-24 22 -36 0 -20 -36 -88 -47 -88 -8 0 -93 63 -93 69 0 4 7 16 15 27 8 12 11
25 7 29 -4 5 -2 5 5 1 6 -3 14 -2 18 4 9 15 48 12 73 -6z m-1521 -46 c10 -17
11 -58 1 -52 -4 3 -17 -14 -28 -36 -17 -33 -24 -39 -35 -30 -8 6 -11 18 -8 26
7 18 -16 46 -33 40 -7 -3 -18 2 -24 9 -10 12 -9 16 1 20 108 39 114 40 126 23z
m1429 -59 c27 -11 50 -22 53 -24 8 -9 -21 -34 -34 -29 -16 6 -30 -13 -30 -41
0 -13 -6 -20 -17 -19 -10 1 -18 -4 -18 -11 0 -16 -47 -55 -67 -55 -21 0 -63
46 -63 70 0 28 35 60 65 60 14 0 25 -4 25 -8 0 -15 -22 -30 -36 -25 -22 8 -17
-31 6 -52 19 -17 20 -17 29 9 6 14 17 26 25 26 13 0 13 4 1 33 -8 17 -19 31
-24 30 -11 -3 -4 24 12 45 13 16 17 16 73 -9z m-1335 -51 c7 -12 0 -26 -30
-58 -33 -36 -40 -39 -51 -25 -10 12 -10 18 0 30 16 19 5 32 -13 16 -14 -11
-47 -6 -47 7 0 4 19 25 42 49 l42 43 24 -23 c13 -12 28 -30 33 -39z m38 -27
c8 -5 11 -16 6 -30 -7 -23 4 -28 22 -10 8 8 17 7 33 -4 22 -15 22 -16 -20 -28
-23 -7 -47 -21 -54 -31 -6 -10 -16 -18 -23 -18 -21 0 -24 19 -8 44 9 14 16 27
16 30 -1 4 -1 17 -1 31 0 26 6 30 29 16z m1129 -85 c34 -23 40 -31 30 -43 -6
-8 -17 -12 -25 -9 -20 8 -43 -4 -43 -24 0 -15 -28 -37 -35 -28 -1 2 -7 30 -13
62 -11 52 -10 60 5 72 10 7 22 9 28 6 6 -4 29 -20 53 -36z m-875 -55 c16 -6
27 -17 24 -24 -5 -13 -11 -13 -39 -2 -11 4 -18 3 -18 -4 0 -6 9 -11 21 -11 14
0 19 -5 17 -17 -4 -18 -10 -19 -40 -8 -11 4 -18 3 -18 -4 0 -6 11 -13 24 -17
16 -4 23 -11 19 -20 -5 -14 -16 -13 -70 7 l-23 8 20 45 c17 40 17 45 3 51 -17
6 -23 0 -48 -47 -10 -17 -21 -25 -30 -22 -19 8 -19 7 5 54 18 36 19 40 4 48
-9 5 -14 14 -10 20 4 7 28 1 69 -17 34 -15 75 -33 90 -40z m678 -11 c6 -16 15
-27 20 -24 5 3 6 -2 2 -12 -5 -14 -1 -15 25 -9 25 5 32 3 32 -8 0 -16 -63 -42
-78 -33 -5 3 -17 26 -27 52 -15 39 -15 48 -4 55 19 12 19 12 30 -21z m-47 -49
c20 -27 36 -52 36 -55 0 -4 -20 -4 -45 0 -38 5 -45 4 -45 -10 0 -9 -4 -16 -10
-16 -5 0 -13 0 -17 0 -15 1 -2 105 15 118 24 18 27 16 66 -37z m-514 19 c11
-11 20 -15 20 -10 0 6 10 10 21 10 17 0 20 -5 17 -25 -4 -19 -1 -25 13 -25 12
0 19 7 19 20 0 17 7 20 45 20 42 0 47 -3 59 -31 l13 -31 7 25 c4 18 15 27 37
32 17 4 32 5 33 3 2 -1 6 -29 8 -60 4 -51 2 -58 -13 -58 -13 0 -19 10 -22 38
l-4 37 -1 -42 c-2 -39 -4 -43 -27 -43 -19 0 -29 8 -39 30 -13 33 -26 30 -26
-6 0 -17 -4 -22 -15 -18 -10 4 -15 22 -17 58 l-1 51 -6 -50 c-4 -37 -11 -51
-23 -53 -13 -3 -18 3 -18 22 0 31 -25 35 -33 6 -3 -11 -13 -20 -22 -20 -15 0
-17 7 -13 45 3 26 2 42 -4 39 -5 -3 -18 2 -30 12 -19 18 -20 18 -34 -1 -23
-31 -13 -50 24 -47 39 4 46 -24 8 -34 -50 -12 -93 37 -74 86 17 45 64 54 98
20z m404 -15 c5 -15 1 -17 -44 -19 -27 -1 -36 -22 -20 -46 8 -12 13 -13 30 -2
29 18 51 16 43 -5 -9 -25 -23 -33 -58 -33 -40 0 -55 16 -55 60 0 20 5 41 12
48 18 18 85 15 92 -3z"/>
<path d="M1425 2110 c-3 -5 -1 -10 4 -10 6 0 11 5 11 10 0 6 -2 10 -4 10 -3 0
-8 -4 -11 -10z"/>
<path d="M1407 2055 c-4 -8 -2 -17 3 -20 6 -4 10 3 10 14 0 25 -6 27 -13 6z"/>
<path d="M726 1975 c4 -8 10 -12 15 -9 11 6 2 24 -11 24 -5 0 -7 -7 -4 -15z"/>
<path d="M1672 1928 c-16 -16 -15 -48 1 -48 19 0 37 21 37 42 0 21 -20 24 -38
6z"/>
<path d="M1875 1720 c-3 -5 -1 -10 4 -10 6 0 11 5 11 10 0 6 -2 10 -4 10 -3 0
-8 -4 -11 -10z"/>
<path d="M1085 1726 c-31 -13 -55 -51 -55 -86 0 -19 -8 -20 -225 -20 l-225 0
0 -553 c0 -533 1 -553 19 -564 14 -9 89 -12 254 -12 l236 0 6 29 c4 16 18 39
32 50 24 19 40 20 269 20 l244 0 0 559 c0 308 -3 566 -6 575 -5 14 -38 16
-263 16 -189 -1 -264 -4 -286 -14z m535 -551 l0 -555 -237 0 c-220 0 -240 -2
-271 -20 -21 -13 -35 -31 -39 -50 l-5 -30 -239 0 -239 0 0 545 0 545 225 0
225 0 0 26 c0 14 5 34 11 45 22 43 59 48 322 49 l247 0 0 -555z"/>
<path d="M1283 1591 c-8 -22 -8 -33 1 -42 12 -12 -5 -10 -49 6 -17 7 -16 4 5
-17 16 -16 28 -21 32 -14 4 6 10 7 14 3 10 -10 -16 -38 -29 -30 -5 3 -7 1 -3
-5 3 -6 2 -13 -4 -17 -5 -3 -10 -11 -10 -16 0 -5 14 0 30 13 17 12 30 28 30
36 0 12 4 11 20 -3 11 -10 20 -24 20 -31 0 -7 4 -15 9 -18 4 -3 3 12 -2 34 -7
24 -18 41 -30 44 -17 4 -19 11 -14 45 6 48 -4 54 -20 12z"/>
<path d="M1313 1568 c2 -24 5 -26 32 -21 40 8 45 13 12 13 -14 0 -30 8 -36 17
-7 14 -9 13 -8 -9z"/>
<path d="M794 1334 c-6 -23 -3 -48 12 -116 5 -23 3 -26 -15 -21 -15 4 -23 -1
-32 -20 -7 -16 -25 -29 -53 -37 -73 -22 -87 -49 -36 -75 43 -22 60 -18 22 5
-19 11 -32 26 -30 33 6 16 81 42 100 34 19 -7 13 -48 -11 -74 -16 -17 -16 -18
7 -30 13 -7 30 -13 38 -13 24 0 26 -21 4 -71 -25 -59 -30 -126 -11 -138 27
-17 105 24 165 87 l28 30 46 -43 c50 -48 93 -71 117 -61 20 7 20 79 0 136 -19
55 -19 58 8 63 17 3 16 4 -4 3 -19 -2 -30 5 -41 25 -14 24 -14 29 4 58 14 21
29 31 46 32 25 2 25 2 4 6 -16 3 -22 10 -18 19 42 108 39 164 -8 164 -21 0
-90 -43 -124 -77 -19 -19 -25 -17 -58 18 -79 84 -148 112 -160 63z m86 -11
c36 -24 80 -65 92 -86 8 -16 7 -17 -11 -8 -11 6 -29 11 -40 11 -12 0 -21 5
-21 10 0 6 -13 10 -30 10 -23 0 -30 -5 -30 -19 0 -11 -4 -22 -9 -25 -11 -7
-35 89 -27 109 7 20 46 19 76 -2z m278 -60 c-3 -27 -10 -60 -17 -75 -9 -25
-16 -28 -54 -28 -37 0 -47 5 -66 31 -19 26 -20 33 -9 46 28 34 92 73 121 73
29 0 30 0 25 -47z m-177 -71 c24 -21 32 -39 36 -74 5 -42 2 -49 -28 -82 -19
-19 -46 -38 -61 -42 -39 -9 -36 13 5 29 43 19 61 42 61 82 0 44 -27 82 -64 90
-36 8 -40 25 -5 25 14 0 39 -13 56 -28z m-102 -15 c-2 -1 -13 -9 -24 -17 -19
-14 -19 -14 -6 3 7 9 18 17 24 17 6 0 8 -1 6 -3z m56 -9 c52 -24 45 -101 -11
-124 -20 -8 -39 -13 -42 -10 -3 3 0 6 6 6 20 0 14 18 -8 25 -28 9 -37 51 -15
75 20 22 35 26 35 9 0 -7 8 -18 18 -25 16 -13 16 -15 0 -28 -21 -16 -24 -36
-5 -36 41 0 50 61 12 86 -14 9 -25 20 -25 25 0 12 4 11 35 -3z m185 -25 c0 -5
-8 -18 -18 -31 l-18 -23 -12 27 c-7 14 -15 24 -18 22 -2 -3 3 -19 12 -35 17
-28 17 -31 -2 -56 -10 -15 -27 -27 -36 -27 -16 0 -16 3 -2 35 7 19 14 45 14
58 0 13 3 27 7 30 9 10 73 9 73 0z m-259 -90 c13 -16 12 -17 -3 -4 -10 7 -18
15 -18 17 0 8 8 3 21 -13z m255 -50 c35 -73 44 -150 19 -159 -22 -9 -74 19
-116 62 l-32 33 29 35 c17 20 39 35 54 36 18 2 20 4 8 7 -10 2 -18 8 -18 12 0
7 21 31 27 31 1 0 15 -26 29 -57z m-86 -1 c0 -5 -11 -18 -23 -31 -22 -19 -25
-20 -37 -6 -11 13 -10 18 6 30 21 16 54 20 54 7z m-125 -36 c24 16 27 16 45
-1 11 -10 20 -24 20 -31 0 -17 -105 -102 -135 -110 -13 -3 -29 -3 -34 1 -16 9
-13 63 5 111 16 41 16 42 44 27 26 -12 32 -12 55 3z"/>
<path d="M1198 1133 c7 -3 16 -2 19 1 4 3 -2 6 -13 5 -11 0 -14 -3 -6 -6z"/>
<path d="M1258 1113 c17 -9 32 -22 32 -30 0 -15 -50 -43 -82 -44 -19 -1 -19
-2 -4 -6 30 -8 106 26 106 48 0 18 -46 50 -72 48 -7 0 2 -8 20 -16z"/>
<path d="M164 1445 c-8 -19 10 -35 39 -35 10 0 17 8 17 20 0 11 -4 20 -9 20
-5 0 -16 3 -25 6 -10 4 -18 -1 -22 -11z"/>
<path d="M1866 541 c-3 -5 6 -17 20 -26 22 -14 28 -15 35 -4 4 7 3 19 -3 26
-12 15 -44 17 -52 4z"/>
<path d="M360 490 c0 -5 5 -10 10 -10 6 0 10 5 10 10 0 6 -4 10 -10 10 -5 0
-10 -4 -10 -10z"/>
<path d="M1807 435 c3 -8 9 -12 14 -9 12 7 11 11 -5 17 -10 4 -13 1 -9 -8z"/>
<path d="M452 419 c2 -7 10 -15 17 -17 8 -3 12 1 9 9 -2 7 -10 15 -17 17 -8 3
-12 -1 -9 -9z"/>
<path d="M1620 284 c0 -8 5 -12 10 -9 6 4 8 11 5 16 -9 14 -15 11 -15 -7z"/>
<path d="M1380 185 c0 -8 4 -15 10 -15 5 0 7 7 4 15 -4 8 -8 15 -10 15 -2 0
-4 -7 -4 -15z"/>
<path d="M22 1310 c0 -14 2 -19 5 -12 2 6 2 18 0 25 -3 6 -5 1 -5 -13z"/>
</g>
</svg>
